<mxfile host="app.diagrams.net" modified="2020-09-10T22:26:01.728Z" agent="5.0 (Windows NT 10.0; Win64; x64) AppleWebKit/537.36 (KHTML, like Gecko) Chrome/85.0.4183.83 Safari/537.36" etag="6TJlVugAkNfMJZwKZth7" version="13.6.9" type="github">
  <diagram id="cv5JT8wxp_ijO6cPkIjN" name="Page-1">
    <mxGraphModel dx="1422" dy="735" grid="1" gridSize="10" guides="1" tooltips="1" connect="1" arrows="1" fold="1" page="1" pageScale="1" pageWidth="850" pageHeight="1100" math="0" shadow="0">
      <root>
        <mxCell id="0" />
        <mxCell id="1" parent="0" />
        <mxCell id="p4bWAFy9zHYNanwUaDmL-14" value="" style="rounded=1;whiteSpace=wrap;html=1;fillColor=none;align=left;dropTarget=1;container=0;" vertex="1" parent="1">
          <mxGeometry x="1000" y="130" width="230" height="380" as="geometry" />
        </mxCell>
        <mxCell id="p4bWAFy9zHYNanwUaDmL-22" style="edgeStyle=orthogonalEdgeStyle;rounded=0;orthogonalLoop=1;jettySize=auto;html=1;entryX=0;entryY=0.5;entryDx=0;entryDy=0;" edge="1" parent="1" source="p4bWAFy9zHYNanwUaDmL-1" target="p4bWAFy9zHYNanwUaDmL-3">
          <mxGeometry relative="1" as="geometry">
            <Array as="points">
              <mxPoint x="580" y="180" />
              <mxPoint x="580" y="400" />
            </Array>
          </mxGeometry>
        </mxCell>
        <mxCell id="p4bWAFy9zHYNanwUaDmL-1" value="&lt;span&gt;System Advisor Model (SAM)&lt;/span&gt;&lt;br&gt;&lt;span&gt;PySAM&lt;br&gt;&lt;br&gt;Calculate finanical model base on the customer information and load data.&lt;br&gt;&lt;/span&gt;&lt;br&gt;&lt;span&gt;https://github.com/NREL/pysam&lt;/span&gt;&lt;br&gt;&lt;span&gt;https://nrel-pysam.readthedocs.io/en/latest/Import.html&lt;/span&gt;" style="rounded=1;whiteSpace=wrap;html=1;" vertex="1" parent="1">
          <mxGeometry x="210" y="90" width="340" height="140" as="geometry" />
        </mxCell>
        <mxCell id="p4bWAFy9zHYNanwUaDmL-21" style="edgeStyle=orthogonalEdgeStyle;rounded=0;orthogonalLoop=1;jettySize=auto;html=1;entryX=0;entryY=0.5;entryDx=0;entryDy=0;" edge="1" parent="1" source="p4bWAFy9zHYNanwUaDmL-2" target="p4bWAFy9zHYNanwUaDmL-3">
          <mxGeometry relative="1" as="geometry">
            <Array as="points">
              <mxPoint x="540" y="320" />
              <mxPoint x="540" y="400" />
            </Array>
          </mxGeometry>
        </mxCell>
        <mxCell id="p4bWAFy9zHYNanwUaDmL-2" value="&lt;span&gt;Google Project Sunroof&lt;/span&gt;&lt;br&gt;&lt;br&gt;Scrape usable sunligh per year&lt;br&gt;Scrape sq feet for solar panel&lt;br&gt;&lt;br&gt;&lt;span&gt;https://www.google.com/get/sunroof&lt;/span&gt;" style="rounded=1;whiteSpace=wrap;html=1;" vertex="1" parent="1">
          <mxGeometry x="263.75" y="260" width="232.5" height="120" as="geometry" />
        </mxCell>
        <mxCell id="p4bWAFy9zHYNanwUaDmL-25" style="edgeStyle=orthogonalEdgeStyle;rounded=0;orthogonalLoop=1;jettySize=auto;html=1;" edge="1" parent="1" source="p4bWAFy9zHYNanwUaDmL-3" target="p4bWAFy9zHYNanwUaDmL-16">
          <mxGeometry relative="1" as="geometry" />
        </mxCell>
        <mxCell id="p4bWAFy9zHYNanwUaDmL-3" value="DER_Zone_Customer&lt;br&gt;&lt;br&gt;SQL Server&lt;br&gt;PWRSQLPR2\DER" style="rounded=1;whiteSpace=wrap;html=1;" vertex="1" parent="1">
          <mxGeometry x="690" y="360" width="180" height="80" as="geometry" />
        </mxCell>
        <mxCell id="p4bWAFy9zHYNanwUaDmL-4" value="&lt;span&gt;dbo.CCB Database&lt;br&gt;&lt;br&gt;Customer Care Billing (CCB)&lt;/span&gt;" style="rounded=1;whiteSpace=wrap;html=1;" vertex="1" parent="1">
          <mxGeometry x="1020" y="330" width="190" height="80" as="geometry" />
        </mxCell>
        <mxCell id="p4bWAFy9zHYNanwUaDmL-19" style="edgeStyle=orthogonalEdgeStyle;rounded=0;orthogonalLoop=1;jettySize=auto;html=1;entryX=0;entryY=0.5;entryDx=0;entryDy=0;" edge="1" parent="1" source="p4bWAFy9zHYNanwUaDmL-5" target="p4bWAFy9zHYNanwUaDmL-3">
          <mxGeometry relative="1" as="geometry">
            <Array as="points">
              <mxPoint x="580" y="570" />
              <mxPoint x="580" y="400" />
            </Array>
          </mxGeometry>
        </mxCell>
        <mxCell id="p4bWAFy9zHYNanwUaDmL-5" value="&lt;div&gt;USPS API&lt;br&gt;&lt;/div&gt;&lt;div&gt;&lt;br&gt;&lt;/div&gt;&lt;div&gt;Standardize the customers&#39; address&amp;nbsp;&lt;/div&gt;" style="rounded=1;whiteSpace=wrap;html=1;" vertex="1" parent="1">
          <mxGeometry x="265" y="530" width="230" height="80" as="geometry" />
        </mxCell>
        <mxCell id="p4bWAFy9zHYNanwUaDmL-6" value="&lt;span&gt;dbo.DRG_Premise Database&lt;/span&gt;" style="rounded=1;whiteSpace=wrap;html=1;" vertex="1" parent="1">
          <mxGeometry x="1020" y="150" width="190" height="80" as="geometry" />
        </mxCell>
        <mxCell id="p4bWAFy9zHYNanwUaDmL-7" value="&lt;span&gt;dbo.WMIS&amp;nbsp;&lt;/span&gt;Database&lt;span&gt;&lt;br&gt;&lt;br&gt;Solar and Battery Installation&lt;br&gt;&lt;/span&gt;" style="rounded=1;whiteSpace=wrap;html=1;" vertex="1" parent="1">
          <mxGeometry x="1020" y="240" width="190" height="80" as="geometry" />
        </mxCell>
        <mxCell id="p4bWAFy9zHYNanwUaDmL-31" style="edgeStyle=orthogonalEdgeStyle;rounded=0;orthogonalLoop=1;jettySize=auto;html=1;entryX=1;entryY=0.5;entryDx=0;entryDy=0;" edge="1" parent="1" source="p4bWAFy9zHYNanwUaDmL-8" target="p4bWAFy9zHYNanwUaDmL-3">
          <mxGeometry relative="1" as="geometry">
            <Array as="points">
              <mxPoint x="930" y="570" />
              <mxPoint x="930" y="400" />
            </Array>
          </mxGeometry>
        </mxCell>
        <mxCell id="p4bWAFy9zHYNanwUaDmL-8" value="&lt;span&gt;PlugShare&amp;nbsp;&lt;/span&gt;Database&lt;span&gt;&lt;br&gt;&lt;br&gt;EV Charger Location&lt;br&gt;&lt;/span&gt;" style="rounded=1;whiteSpace=wrap;html=1;" vertex="1" parent="1">
          <mxGeometry x="1020" y="530" width="190" height="80" as="geometry" />
        </mxCell>
        <mxCell id="p4bWAFy9zHYNanwUaDmL-10" value="&lt;span&gt;dbo.DMV Database&lt;br&gt;&lt;/span&gt;" style="rounded=1;whiteSpace=wrap;html=1;" vertex="1" parent="1">
          <mxGeometry x="1020" y="420" width="190" height="70" as="geometry" />
        </mxCell>
        <mxCell id="p4bWAFy9zHYNanwUaDmL-20" style="edgeStyle=orthogonalEdgeStyle;rounded=0;orthogonalLoop=1;jettySize=auto;html=1;entryX=0;entryY=0.5;entryDx=0;entryDy=0;" edge="1" parent="1" source="p4bWAFy9zHYNanwUaDmL-11" target="p4bWAFy9zHYNanwUaDmL-3">
          <mxGeometry relative="1" as="geometry">
            <mxPoint x="690" y="430" as="targetPoint" />
            <Array as="points">
              <mxPoint x="540" y="455" />
              <mxPoint x="540" y="400" />
            </Array>
          </mxGeometry>
        </mxCell>
        <mxCell id="p4bWAFy9zHYNanwUaDmL-11" value="NERL Weather Data&lt;br&gt;&lt;br&gt;https://sam.nrel.gov/weather-data.html" style="rounded=1;whiteSpace=wrap;html=1;" vertex="1" parent="1">
          <mxGeometry x="260" y="410" width="240" height="90" as="geometry" />
        </mxCell>
        <mxCell id="p4bWAFy9zHYNanwUaDmL-18" style="edgeStyle=orthogonalEdgeStyle;rounded=0;orthogonalLoop=1;jettySize=auto;html=1;entryX=1;entryY=0.5;entryDx=0;entryDy=0;" edge="1" parent="1" source="p4bWAFy9zHYNanwUaDmL-14" target="p4bWAFy9zHYNanwUaDmL-3">
          <mxGeometry relative="1" as="geometry">
            <Array as="points">
              <mxPoint x="930" y="350" />
              <mxPoint x="930" y="400" />
            </Array>
          </mxGeometry>
        </mxCell>
        <mxCell id="p4bWAFy9zHYNanwUaDmL-15" value="&lt;h1&gt;DER Warehouse&lt;/h1&gt;" style="text;html=1;strokeColor=none;fillColor=none;spacing=5;spacingTop=-20;whiteSpace=wrap;overflow=hidden;rounded=0;" vertex="1" parent="1">
          <mxGeometry x="1015" y="90" width="200" height="40" as="geometry" />
        </mxCell>
        <mxCell id="p4bWAFy9zHYNanwUaDmL-16" value="&lt;b&gt;Dashboard UI&lt;/b&gt;" style="rounded=1;whiteSpace=wrap;html=1;fillColor=#dae8fc;strokeColor=#6c8ebf;" vertex="1" parent="1">
          <mxGeometry x="690" y="550" width="180" height="80" as="geometry" />
        </mxCell>
        <mxCell id="p4bWAFy9zHYNanwUaDmL-27" style="edgeStyle=orthogonalEdgeStyle;rounded=0;orthogonalLoop=1;jettySize=auto;html=1;entryX=0.5;entryY=0;entryDx=0;entryDy=0;" edge="1" parent="1" source="p4bWAFy9zHYNanwUaDmL-17" target="p4bWAFy9zHYNanwUaDmL-26">
          <mxGeometry relative="1" as="geometry" />
        </mxCell>
        <mxCell id="p4bWAFy9zHYNanwUaDmL-17" value="Pi Historian&lt;br&gt;&lt;br&gt;DS Load Data" style="rounded=1;whiteSpace=wrap;html=1;fillColor=#FFFFFF;" vertex="1" parent="1">
          <mxGeometry x="825" y="120" width="120" height="60" as="geometry" />
        </mxCell>
        <mxCell id="p4bWAFy9zHYNanwUaDmL-28" style="edgeStyle=orthogonalEdgeStyle;rounded=0;orthogonalLoop=1;jettySize=auto;html=1;entryX=0.5;entryY=0;entryDx=0;entryDy=0;" edge="1" parent="1" source="p4bWAFy9zHYNanwUaDmL-26" target="p4bWAFy9zHYNanwUaDmL-3">
          <mxGeometry relative="1" as="geometry">
            <Array as="points">
              <mxPoint x="885" y="320" />
              <mxPoint x="780" y="320" />
            </Array>
          </mxGeometry>
        </mxCell>
        <mxCell id="p4bWAFy9zHYNanwUaDmL-26" value="Machine Learning Model&lt;br&gt;&lt;br&gt;4.8kV Load Forecasting" style="rounded=1;whiteSpace=wrap;html=1;fillColor=#FFFFFF;" vertex="1" parent="1">
          <mxGeometry x="800" y="230" width="170" height="60" as="geometry" />
        </mxCell>
        <mxCell id="p4bWAFy9zHYNanwUaDmL-30" style="edgeStyle=orthogonalEdgeStyle;rounded=0;orthogonalLoop=1;jettySize=auto;html=1;entryX=0.5;entryY=0;entryDx=0;entryDy=0;" edge="1" parent="1" source="p4bWAFy9zHYNanwUaDmL-29" target="p4bWAFy9zHYNanwUaDmL-3">
          <mxGeometry relative="1" as="geometry">
            <Array as="points">
              <mxPoint x="700" y="320" />
              <mxPoint x="780" y="320" />
            </Array>
          </mxGeometry>
        </mxCell>
        <mxCell id="p4bWAFy9zHYNanwUaDmL-29" value="Census Information&lt;br&gt;&lt;br&gt;Census API" style="rounded=1;whiteSpace=wrap;html=1;fillColor=#FFFFFF;" vertex="1" parent="1">
          <mxGeometry x="630" y="120" width="140" height="60" as="geometry" />
        </mxCell>
      </root>
    </mxGraphModel>
  </diagram>
</mxfile>
